{"title":"The Twilight Saga Eclipse TS XViD-IMAGiNE-[tracker.BTARENA.org].","uid":5665377,"size":1517923139,"categoryP":"video","categoryS":"movies","magnet":"?xt=urn:btih:a3e0e73132b7375fd22fb817fe3968cd60bf4198&amp;dn=The+Twilight+Saga+Eclipse+TS+XViD-IMAGiNE-%5Btracker.BTARENA.org%5D.&amp;tr=udp%3A%2F%2Ftracker.openbittorrent.com%3A80&amp;tr=udp%3A%2F%2Fopen.demonii.com%3A1337&amp;tr=udp%3A%2F%2Ftracker.coppersurfer.tk%3A6969&amp;tr=udp%3A%2F%2Fexodus.desync.com%3A6969","seeders":1,"leechers":0,"uploader":"AiTB","files":3,"time":1278117092,"description":"sample, info\n\n &lt;a href=&quot;\nhttp://www.btarena.org/movies/telesync/the-twilight-saga-eclipse-ts-xvid-imagine&quot; rel=&quot;nofollow&quot; target=&quot;_NEW&quot;&gt;\nhttp://www.btarena.org/movies/telesync/the-twilight-saga-eclipse-ts-xvid-imagine&lt;/a&gt;\n\n\n\n\nVideo\nFormat                           : MPEG-4 Visual\nFormat profile                   : Streaming Video@L1\nFormat settings, BVOP            : Yes\nFormat settings, QPel            : No\nFormat settings, GMC             : No warppoints\nFormat settings, Matrix          : Default\nMuxing mode                      : Packed bitstream\nCodec ID                         : XVID\nCodec ID/Hint                    : XviD\nDuration                         : 1h 55mn\nBit rate                         : 1 599 Kbps\nWidth                            : 720 pixels\nHeight                           : 304 pixels\nDisplay aspect ratio             : 2.35\nFrame rate                       : 25.000 fps\nResolution                       : 24 bits\nColorimetry                      : 4:2:0\nScan type                        : Progressive\nBits/(Pixel*Frame)               : 0.292\nStream size                      : 1.29 GiB (92%)\nWriting library                  : XviD 50\n\nAudio\nFormat                           : MPEG Audio\nFormat version                   : Version 1\nFormat profile                   : Layer 3\nCodec ID                         : 55\nCodec ID/Hint                    : MP3\nDuration                         : 1h 55mn\nBit rate mode                    : Constant\nBit rate                         : 128 Kbps\nChannel(s)                       : 2 channels\nSampling rate                    : 44.1 KHz\nResolution                       : 16 bits\nStream size                      : 105 MiB (7%)\nAlignment                        : Split accross interleaves\nInterleave, duration             : 40 ms (1.00 video frame)\nInterleave, preload duration     : 500 ms\n","torrent":{"xt":"urn:btih:a3e0e73132b7375fd22fb817fe3968cd60bf4198","amp;dn":"The+Twilight+Saga+Eclipse+TS+XViD-IMAGiNE-%5Btracker.BTARENA.org%5D.","amp;tr":["udp%3A%2F%2Ftracker.openbittorrent.com%3A80","udp%3A%2F%2Fopen.demonii.com%3A1337","udp%3A%2F%2Ftracker.coppersurfer.tk%3A6969","udp%3A%2F%2Fexodus.desync.com%3A6969"],"infoHash":"a3e0e73132b7375fd22fb817fe3968cd60bf4198","infoHashBuffer":{"type":"Buffer","data":[163,224,231,49,50,183,55,95,210,47,184,23,254,57,104,205,96,191,65,152]},"announce":[],"urlList":[]}}